<?xml version="1.0" encoding="utf-8"?>
<!-- Generator: Adobe Illustrator 19.2.1, SVG Export Plug-In . SVG Version: 6.00 Build 0)  -->
<svg version="1.1" id="layer" xmlns="http://www.w3.org/2000/svg" xmlns:xlink="http://www.w3.org/1999/xlink" x="0px" y="0px"
	 viewBox="0 0 652 652" style="enable-background:new 0 0 652 652;" xml:space="preserve">
<style type="text/css">
	.st0{fill:#231815;}
</style>
<path class="st0" d="M114.5,400.4c24.7,0,35.3-14.5,38.8-20.4c2.8-4.6,6.5-12.3,10-20.3c2.9-6.7,5.6-9.7,8.8-9.7
	c2.8,0,4.6,2.2,4.6,5.8c0,1.9-5.3,28.9-5.5,30.2c-1.2,7.3-2.3,10.3-4.6,12.7c-1,1.1-2.3,2-4.7,3.4c-15.3,8.9-32.3,13.5-49.5,13.5
	c-51.8,0-91.6-39.3-91.6-90.5c0-37.4,19.7-69,52.8-85c6.2-3,21.2-10.4,44-9.3c23.1,1.1,40.5,14,45.4,16.8c8.1,4.7,7.2,12.1,7.4,14.4
	c0.8,9.4,1.3,20.5,1.3,22.9c0,6.3-1.3,8.9-4.6,8.9c-2.8,0-4.4-1.9-6.9-8.4c-9.6-25.3-24.8-38.5-44.4-38.5
	c-20.4,0-39.3,12.9-48.3,33.1c-5.3,11.7-7.8,25.7-7.8,42.8c0,28.6,7.2,49.8,21.5,63.4C92.2,396.7,103.8,400.4,114.5,400.4"/>
<path class="st0" d="M225.9,243.6c0,4.5-0.3,51.8-0.3,52.9c0,3.5,0.9,5.2,2.8,5.2c1.3,0,2.4-0.5,4.8-2c6.8-4.1,15-6.2,23.6-6.4
	c9.1-0.3,19.4,3,25.2,7.2c4.7,3.5,8.6,8.7,10.6,14.5c1.4,4.2,1.8,7.5,1.9,16.1c0.2,7.6,0.7,53.5,0.7,53.5c0,10.8,1.4,14.2,7.5,17.8
	c2.9,1.8,3.8,2.6,3.7,3.7c-0.3,3-5.7,3.3-16.8,3.3l-27.9,0.4c-6.7,0-9.4-0.9-9.4-3c0-1.3,1.3-2.9,4.5-5.3c4.4-3.3,6.2-7.5,6.2-13.6
	c0-1-0.9-62.9-0.9-62.9c-0.2-11.2-9.4-13.5-16.5-13.8c-6.8-0.3-14.1,3.9-17.6,8.6c-1.8,2.4-2.1,7.6-2.1,12.7
	c0.1,7-0.3,51.2-0.3,52.6c0,4.9,0.6,8.6,1.7,10.9c1,2.2,2,3.1,5.4,5.2c4.1,2.6,5.8,4.2,5.8,5.6c0,2.3-3.8,3.1-8.4,3.1
	c-0.9,0-36.5,0-37.5,0c-6.2,0-9-0.9-8.8-2.9c0.1-2.3,4.4-4,6.2-6c1.8-2,3.7-5.2,3.8-8.6c0.1-2.4,0.2-118.3,0.2-118.3
	c-0.3-11-2.3-12.6-5-14.7c-2.6-2-4-3.4-4-4.8c0-1.1,1.1-2.3,4-3.3c5.5-2,14.7-5.5,18.1-7.4c8.9-5,10.5-10.3,15-10
	C225.9,234.2,225.9,239.1,225.9,243.6"/>
<path class="st0" d="M359.6,242.3c0,0,1,138.1,1,140c0,8.9,0.6,13.2,2.8,16c1.8,2.4,10.2,4.7,9.7,8.7c-0.2,1.8-5,2.1-9.9,2.1
	c-1.2,0-36.3,0.3-36.3,0.3c-7.8-0.2-10.1-0.8-10.1-2.4c0-1.8,4.3-4.1,6.6-6c3.4-2.9,4.4-4,4.4-10.7c0-0.7-0.5-121-0.5-121
	c0-4.6-1.7-7.9-5.1-10c-2.4-1.5-4.3-3.1-3.3-5.1c1-2,3.5-2.9,6.5-3.7c3.1-0.8,7.9-2.7,11.6-4.4c4.3-1.9,6.2-3.2,12.5-8
	c2.7-2.1,3.5-3.4,5.9-3.6C358.2,234.2,359.8,236,359.6,242.3"/>
<path class="st0" d="M594.3,252.9c6.4,1.5,9.6,3.9,9.6,8.3c0,5.5-5.5,11.9-15.3,17.8c-6.9,4.1-15.9,7.4-20.5,7.4
	c-2.1,0-6.6-0.2-6.6-4.2c0-2,2-4.1,6.9-7.2c3.1-1.9,3.9-2.7,5.1-4.6c1.2-1.9,1.8-3.8,1.8-5.8c0-2.9-1-5-3.7-7.8
	c-2.4-2.5-3.3-4-3.3-5.5c0-3.9,5.6-4.7,8.7-3.7C581.6,249.1,593.5,252.7,594.3,252.9"/>
<path class="st0" d="M547.3,335.3c2.4-9.7,6.3-28.4,20.5-28.4c11.6,0,17.1,15,18.6,29.7c0.4,3.7,0.8,7.1-7.9,7.1c0,0-22.7,0-23.9,0
	C546,343.6,546,340.7,547.3,335.3 M597.7,357.3c5,0,19.1,0.7,21.4-1.5c1.9-1.9,1.7-3.6,1.7-7c0-27.5-19.4-55.3-52.7-55.3
	c-36.5,0-57.6,33.9-57.6,58.7c0,33.2,26.6,60.1,59.4,60.1c17.2,0,33.9-7,44.4-18.7c2.6-2.9,3.7-5.1,3.7-7.3c0-2.8-2.2-5-4.9-5
	c-1.8,0-3.7,1.1-6.7,3.8c-5,4.6-19.2,15.1-33.3,12.2c-27.3-5.8-26.8-36.2-25.5-39.9C547.6,357.3,596,357.3,597.7,357.3"/>
<path class="st0" d="M442.3,399.1c-21.8,0-28.1-22.6-28.1-46.5c0-31,13.9-45.7,23.9-45.7c23.9,0,27.6,26.9,27.6,45.7
	C465.6,384.9,453.6,399.1,442.3,399.1 M441.7,293.3c-43.3,0-62.8,34.1-62.8,58c0,30.4,20.9,61.4,60.8,61.4c34.4,0,60.4-26,60.4-59.6
	C500.1,320,473.8,293.3,441.7,293.3"/>
</svg>
