<svg xmlns="http://www.w3.org/2000/svg" viewBox="0 0 170 170"><g><rect fill="#000" width="170" height="170"/><path fill="#fff" d="M151.15,72.16V46.79L146.25,44l-1.53-8.83L107,21.29,85,8.62l-4.89,2.82L71.68,8.35,40.82,34.11l-22,12.68v5.67L12,58.21l6.89,39.63v25.31L23.73,126l1.55,8.9,38.07,14L85,161.32l4.83-2.78,8.49,3.11,31.09-26,21.74-12.55v-5.61l6.89-5.75Zm-132.3,13-4.53-26,4.53-3.78Zm53.26-74.3,5.54,2L51.83,27.76ZM27.21,133.26l-1-5.87,26.13,15.07Zm70.68,25.91-5.6-2,26.11-15.07Zm28-37.76H113.57V61.54h-.42l-30,59.87H80.67L50.35,62h-.87v59.44H44.1V48.32H56.64l28.44,56.09h.58l27.91-56.09H125.9ZM118,27.65l24.81,9.09,1,5.81Zm33.17,57.22,4.53,26.05-4.53,3.78Z"/></g></svg>
