<svg xmlns="http://www.w3.org/2000/svg" viewBox="0 0 145.79 101.41"><defs><style>.cls-1,.cls-3{fill:none;stroke-linecap:round;stroke-linejoin:round;}.cls-1{stroke:#a07282;stroke-width:2.88px;}.cls-2{fill:#231f20;}.cls-3{stroke:#000;stroke-width:2.58px;}</style></defs><g id="Layer_2" data-name="Layer 2"><g id="Layer_1-2" data-name="Layer 1"><polyline class="cls-1" points="5.75 75.18 4.43 1.44 96.12 1.44 96.12 32.01"/><path class="cls-2" d="M16.82,28.05a1.39,1.39,0,0,1,.4-1,1.27,1.27,0,0,1,.93-.39H29.31a1,1,0,0,1,.87.38,1.35,1.35,0,0,1,0,1.67,1,1,0,0,1-.87.38H19.64v7.81H28.9a1.06,1.06,0,0,1,.88.38,1.35,1.35,0,0,1,.29.83,1.39,1.39,0,0,1-.29.85,1.06,1.06,0,0,1-.88.38H19.64v9.82a1.52,1.52,0,0,1-.12.62,1.14,1.14,0,0,1-.33.44,1.2,1.2,0,0,1-.45.26,1.52,1.52,0,0,1-.51.09,1.55,1.55,0,0,1-1-.35,1.29,1.29,0,0,1-.43-1.06Z"/><path class="cls-2" d="M33.3,28.06a1.47,1.47,0,0,1,.11-.56,1.77,1.77,0,0,1,.3-.45,1.57,1.57,0,0,1,.45-.31,1.33,1.33,0,0,1,.55-.12h6.78a16.52,16.52,0,0,1,2.89.26,7.47,7.47,0,0,1,2.57.95,5.29,5.29,0,0,1,1.84,1.89,6.1,6.1,0,0,1,.71,3.1,4.86,4.86,0,0,1-1.21,3.35,6.27,6.27,0,0,1-3.42,1.88v.07a5.13,5.13,0,0,1,1.88.63,3.81,3.81,0,0,1,1.18,1.11,5.24,5.24,0,0,1,.66,1.56,19.1,19.1,0,0,1,.34,2c.08.87.15,1.66.22,2.36s.11,1.3.16,1.79.08,1.08.11,1.53A1.39,1.39,0,0,1,49,50.16a1.52,1.52,0,0,1-2,0,1.36,1.36,0,0,1-.5-1c-.13-1.36-.23-2.56-.31-3.59s-.18-1.9-.29-2.61a8.17,8.17,0,0,0-.44-1.76,2.6,2.6,0,0,0-.78-1.08,2.91,2.91,0,0,0-1.3-.55,10.93,10.93,0,0,0-2-.15H36.1v9.69a1.52,1.52,0,0,1-.12.62,1,1,0,0,1-.32.44,1.24,1.24,0,0,1-.46.26,1.47,1.47,0,0,1-1.46-.26,1.3,1.3,0,0,1-.44-1.06Zm7,9,1.46,0a11.48,11.48,0,0,0,1.45-.17,6.76,6.76,0,0,0,1.32-.4,3.49,3.49,0,0,0,1.08-.73,3.18,3.18,0,0,0,.74-1.12A4.38,4.38,0,0,0,46.57,33a4.73,4.73,0,0,0-.24-1.6,3.5,3.5,0,0,0-.63-1.13,3,3,0,0,0-.93-.71,5.3,5.3,0,0,0-1.12-.39A8.21,8.21,0,0,0,42.44,29c-.4,0-.8,0-1.18,0H36.1V37.1Z"/><path class="cls-2" d="M54.66,50.53a1.2,1.2,0,0,1-.52-.12,1.5,1.5,0,0,1-.44-.32,1.44,1.44,0,0,1-.31-.46,1.25,1.25,0,0,1-.12-.54v-21a1.64,1.64,0,0,1,.09-.53,1.44,1.44,0,0,1,.7-.78,1,1,0,0,1,.52-.13H66.39a1,1,0,0,1,.87.38,1.35,1.35,0,0,1,0,1.67,1,1,0,0,1-.87.38H56v8h9.84a1,1,0,0,1,.89.38,1.35,1.35,0,0,1,.29.83,1.3,1.3,0,0,1-.3.83,1,1,0,0,1-.88.38H56V48.1H66.83a1,1,0,0,1,.87.37,1.36,1.36,0,0,1,0,1.68,1,1,0,0,1-.87.38Z"/><path class="cls-2" d="M72.58,50.53a1.13,1.13,0,0,1-.51-.12,1.55,1.55,0,0,1-.45-.32,1.62,1.62,0,0,1-.31-.46,1.25,1.25,0,0,1-.12-.54v-21a1.64,1.64,0,0,1,.09-.53,1.67,1.67,0,0,1,.28-.46,1.46,1.46,0,0,1,.42-.32,1,1,0,0,1,.52-.13H84.31a1,1,0,0,1,.87.38,1.35,1.35,0,0,1,0,1.67,1,1,0,0,1-.87.38H74v8h9.85a1,1,0,0,1,.88.38,1.33,1.33,0,0,1,0,1.66,1.06,1.06,0,0,1-.88.38H74V48.1h10.8a1,1,0,0,1,.87.37,1.4,1.4,0,0,1,0,1.68,1,1,0,0,1-.87.38Z"/><polygon class="cls-1" points="103.47 32.29 103.47 56.84 128.2 56.84 128.2 46.4 114.09 32.29 103.47 32.29"/><path class="cls-1" d="M18.41,75.18h-12A4.92,4.92,0,0,0,1.44,80.1h0A4.91,4.91,0,0,0,6.36,85H14"/><path class="cls-1" d="M51.6,75.18H88.46a7.6,7.6,0,0,0,7.6-7.6V23.39h21l27.31,25.2V85h-9.71"/><line class="cls-1" x1="54.7" y1="84.99" x2="93.1" y2="84.97"/><circle class="cls-3" cx="34.35" cy="87.17" r="12.95"/><circle class="cls-3" cx="113.98" cy="85.16" r="12.95"/></g></g></svg>