<svg xmlns="http://www.w3.org/2000/svg" viewBox="0 0 656.6 105.5"><path d="M347.7 0c30.9 0 56 23.6 56 52.7s-25.1 52.7-56 52.7-56-23.6-56-52.7S316.8 0 347.7 0z" fill="#f47216"/><path d="M259.7.7c8.8 0 16.2 1.8 25.3 6.1v22.8a35.3 35.3 0 0 0-25.8-11.2c-19.3 0-34.4 15-34.4 34.1 0 20.1 14.7 34.2 35.4 34.2 9.3 0 16.6-3.1 24.8-10.9v22.8a60.2 60.2 0 0 1-25.8 5.8c-31.3 0-55.6-22.6-55.6-51.7.1-29 25-52 56.1-52zM162.6 1.3c11.5 0 22.1 3.7 30.9 11l-10.7 13.2c-5.4-5.6-10.4-8-16.6-8-8.9 0-15.3 4.7-15.3 11 0 5.4 3.6 8.2 15.9 12.5 23.4 8 30.3 15.2 30.3 30.9 0 19.2-15 32.6-36.3 32.6-15.6 0-27-5.8-36.5-18.9l13.3-12A24.4 24.4 0 0 0 160 86.8c9.2 0 15.9-6 15.9-14 0-4.2-2.1-7.7-6.2-10.3-2.1-1.2-6.2-3-14.2-5.6-19.3-6.5-25.9-13.5-25.9-27.2.2-16.2 14.4-28.4 33-28.4zM397.3 3h22.5l28.1 66.6L476.3 3h22.3l-45.5 101.7H442zM96.1 3.2h20.6v99.1H96.1zM507.9 3.2h58.2V20h-37.7v22h36.3v16.8h-36.3v26.7h37.7v16.8h-58.2zM623.5 60.6c15.5-3 24-12.9 24-28.1 0-18.6-13.6-29.3-37.3-29.3h-30.5v99.1h20.5V62.5h2.7l28.4 39.8h25.3l-33.1-41.7zm-17.3-11.8h-6v-30h6.3c12.8 0 19.7 5 19.7 14.7.1 10-6.8 15.3-20 15.3zM30.1 3.2H0v99.1h30c15.9 0 27.5-3.5 37.6-11.4a48.8 48.8 0 0 0 19.1-38.1c0-29.2-23.2-49.6-56.6-49.6zm24 74.5c-6.5 5.5-14.8 7.9-28.1 7.9h-5.5V20H26c13.3 0 21.3 2.2 28.1 8a32.7 32.7 0 0 1 0 49.7z"/></svg>