<svg id="Layer_1" xmlns="http://www.w3.org/2000/svg" viewBox="0 0 670.1 178.7"><style>.st0{fill:#003087}.st1{fill:#009cde}</style><path class="st0" d="M113.5 8.8A57 57 0 0 0 80.6.1H28.3c-4.2 0-6.5 2-7 6.2L.1 139.8c-.2 1.3.1 2.5 1 3.6.8 1 2 1.6 3.3 1.6h24.7c4.4 0 6.8-2 7.2-6.2l6-36c.1-1.7.9-3.1 2.2-4.2a11 11 0 0 1 5-2.2c1.9-.3 3.7-.5 5.5-.5 1.7 0 3.8.2 6.2.4l4.6.3c18.7 0 33.5-5.3 44.1-15.9 10.7-10.5 16-25.2 16-44 0-12.8-4.1-22.2-12.5-28l.1.1zm-27 40c-1.1 7.7-4 12.7-8.5 15-6.2 2.7-12.9 4-19.6 3.7l-10.8.3 5.5-35c.5-2.4 1.9-3.6 4.3-3.6h6.2c8.7 0 15 1.3 19 3.8 3.9 2.5 5.2 7.8 3.9 15.8z"/><path class="st1" d="M665.9.1h-24.2c-2.4 0-3.8 1.2-4.3 3.6l-21.2 136-.4.7c0 1.1.5 2.2 1.3 3.1 1 1 2 1.5 3.3 1.5h21.7c4.2 0 6.4-2 6.9-6.2L670.1 5v-.3c0-3-1.5-4.6-4.2-4.6z"/><path class="st0" d="M373.4 52.8c0-1.1-.4-2.2-1.3-3.2s-1.9-1.4-3-1.4h-25a7.2 7.2 0 0 0-6 3.2l-34.6 51-14.4-49c-1-3.5-3.5-5.2-7.2-5.2h-24.5c-1.1 0-2.1.5-3 1.4a5 5 0 0 0-1.3 3.2l27.8 82.4c-17.9 24.4-26.8 37.5-26.8 39.3 0 2.8 1.4 4.2 4.3 4.2h25.1a7 7 0 0 0 6-3.3L372.9 55c.4-.4.6-1.1.6-2.2h-.1z"/><path class="st1" d="M608 48.2h-24.9c-3 0-4.9 3.6-5.5 10.8-5.7-8.7-16-13.1-31.1-13.1a53 53 0 0 0-40.1 17.7 58.8 58.8 0 0 0-16.5 41.5c0 12.9 3.7 23.1 11.3 30.8 8.1 7.8 19 11.9 30.2 11.4a49.8 49.8 0 0 0 34.7-14.4l-.6 3c-.5 1.7-.7 3-.7 3.9 0 3.5 1.4 5.2 4.3 5.2h22.5c4.2 0 6.6-2 7.2-6.2l13.4-85.4c.3-1.3 0-2.5-1-3.6-.8-1.1-2-1.6-3.2-1.6zm-42.7 64.4a27.8 27.8 0 0 1-20.2 8.3c-6.4 0-11.5-1.7-15.4-5.2a18 18 0 0 1-5.9-14.4A28 28 0 0 1 551 72.5h1.3c5.6-.2 11 1.7 15.2 5.4 4 3.6 6 8.5 6 14.9a27 27 0 0 1-8.3 20l.1-.2z"/><path class="st0" d="M236.3 48.2h-24.8c-3 0-5 3.6-5.6 10.8-5.9-8.7-16.2-13.1-31-13.1a53 53 0 0 0-40.2 17.7 58.8 58.8 0 0 0-16.5 41.5c0 12.9 3.8 23.1 11.3 30.8 8.1 7.8 19.1 12 30.3 11.4a51 51 0 0 0 34.7-14.4c-1 2.6-1.4 5-1.4 6.9 0 3.5 1.5 5.2 4.3 5.2H220c4.1 0 6.5-2 7.2-6.2l13.4-85.4c.2-1.3-.1-2.5-1-3.6-.8-1.1-2-1.7-3.3-1.6zm-42.7 64.6c-5.5 5.3-12.3 8-20.4 8-6.3 0-11.4-1.7-15.2-5.2-4-3.7-6.1-9-5.8-14.4a28 28 0 0 1 27.2-28.8h1.3c5.6-.2 11 1.7 15.2 5.4 4 3.6 6 8.5 6 14.9 0 8-2.7 14.8-8.3 20v.1z"/><path class="st1" d="M485.1 8.8A56.6 56.6 0 0 0 452.3.1h-52c-4.4 0-6.8 2-7.3 6.2l-21.2 133.5a4 4 0 0 0 1 3.6 4 4 0 0 0 3.2 1.6h26.9c2.6 0 4.3-1.4 5.2-4.2l5.9-38c.2-1.7 1-3.1 2.3-4.2s3-1.8 4.9-2.2c2-.3 3.8-.5 5.5-.5 1.8 0 3.9.2 6.3.4l4.5.3c18.8 0 33.5-5.3 44.2-15.9 10.7-10.5 16-25.2 16-44 0-12.8-4.2-22.2-12.6-28v.1zm-33.5 53.8c-4.8 3.2-12 4.9-21.6 4.9l-10.5.3 5.6-35c.4-2.4 1.9-3.6 4.3-3.6h5.8c4.8 0 8.7.2 11.5.7 2.8.4 5.6 1.8 8.2 4 2.6 2.3 3.9 5.7 3.9 10 0 9.2-2.4 15.4-7.2 18.7z"/></svg>