<svg xmlns="http://www.w3.org/2000/svg" viewBox="0 0 750.5 273.8"><path d="M553.8 32l-14.5 35h29.1l-14.6-35zM386.3 53.7c2.7-1.4 4.3-4.5 4.3-8.4 0-3.8-1.7-6.5-4.4-7.8a22 22 0 0 0-10-1.6h-26v19.5h25.6c4.1.1 7.6.1 10.5-1.7zM53.4 32L39 67.1h28.8L53.4 32zm668.4 224.5h-40.7v-18.9h40.6c4 0 6.8-.5 8.5-2.2a7.6 7.6 0 0 0 2.5-5.7 7 7 0 0 0-2.6-5.8c-1.5-1.3-3.8-2-7.4-2-19.8-.7-44.5.6-44.5-27.2 0-12.8 8.1-26.2 30.3-26.2h42V151h-39a44 44 0 0 0-26.4 7.2V151h-57.8c-9.2 0-20.1 2.3-25.2 7.2V151H498.9v7.2a55 55 0 0 0-28.4-7.2h-68v7.2c-6.5-6.3-20.9-7.2-29.7-7.2h-76.1l-17.4 18.8L263 151H149.1v122.7h111.6l18-19.1 16.9 19.1 68.8.1V245h6.8c9.1.1 19.9-.2 29.4-4.3v33.1h56.7v-32h2.7c3.5 0 3.8.1 3.8 3.6v28.3h172.3a49 49 0 0 0 28.7-7.9v7.9h54.7c11.4 0 22.5-1.6 30.9-5.7v-22.9c-5.1 7.6-15.1 11.4-28.6 11.4zm-349.8-29h-26.3V257h-41l-26-29.1-27 29.1h-83.6v-87.9H253l26 28.8 26.8-28.8h67.4c16.7 0 35.6 4.6 35.6 29-.1 24.4-18.4 29.4-36.8 29.4zm126.6-4c3 4.3 3.4 8.3 3.5 16V257h-21.2v-11c0-5.3.5-13.1-3.4-17.2-3.1-3.1-7.8-3.9-15.5-3.9h-22.5V257h-21.2v-87.9H467c10.7 0 18.5.5 25.4 4.1 6.7 4 10.8 9.5 10.8 19.5 0 14-9.4 21.2-15 23.4 4.7 1.8 8.6 4.9 10.4 7.4zm87.1-36.2h-49.4v16h48.2v17.9h-48.2v17.5l49.4.1V257h-70.4v-87.9h70.4v18.2zm54.2 69.7h-41.1v-18.9h40.9c4 0 6.8-.5 8.6-2.2a8 8 0 0 0 2.5-5.7c0-2.6-1.1-4.6-2.6-5.8-1.6-1.3-3.8-1.9-7.5-1.9-19.7-.7-44.4.6-44.4-27.2 0-12.8 8-26.2 30.2-26.2h42.3v18.7h-38.7c-3.8 0-6.3.1-8.5 1.6-2.3 1.4-3.2 3.5-3.2 6.3 0 3.3 2 5.6 4.6 6.5 2.2.8 4.6 1 8.2 1l11.4.3c11.4.3 19.3 2.3 24.1 7.1 4.1 4.2 6.3 9.6 6.3 18.6.1 19-11.8 27.8-33.1 27.8zm110.5-11.8zm-274.1-56.5c-2.5-1.5-6.3-1.6-10.1-1.6h-26v19.7h25.6c4.1 0 7.6-.1 10.4-1.8a9.5 9.5 0 0 0 4.4-8.4c.1-3.8-1.6-6.5-4.3-7.9zm235.7-1.6c-3.8 0-6.4.1-8.5 1.6-2.2 1.4-3.1 3.5-3.1 6.3 0 3.3 1.9 5.6 4.6 6.5 2.2.8 4.6 1 8.1 1l11.4.3c11.5.3 19.2 2.3 23.9 7.1.9.7 1.4 1.4 2 2.2v-25H712zm-339.3 0h-27.5v22.4h27.3c8.1 0 13.1-4 13.1-11.6 0-7.7-5.3-10.8-12.9-10.8zm-183.6 0v16h46.3V221h-46.3v17.5H241l24.1-25.8-23.1-25.6h-52.9zm135.5 61.5v-70.5l-32.4 34.7 32.4 35.8zM190.9 107.4v15.1h176.3l-.1-32h3.4c2.4.1 3.1.3 3.1 4.2v27.8h91.2V115a72.8 72.8 0 0 0 33.8 7.5H537l8.2-19.5h18.2l8 19.5h73.9V104l11.2 18.5h59.2V0h-58.6v14.5L648.9 0h-60.1v14.5L581.2 0H500a72.7 72.7 0 0 0-35.2 7.2V0h-56.1v7.2C402.5 1.7 394.1 0 384.8 0H180l-13.7 31.7L152.2 0H87.7v14.5L80.6 0h-55L0 58.3v46.6L37.8 17h31.3l35.9 83.2V17h34.4L167 76.6 192.4 17h35.1v87.9h-21.6l-.1-68.8-30.6 68.8h-18.5L126.1 36v68.9h-43L75 85.3H31.1l-8.2 19.6H0v17.7h36l8.1-19.5h18.2l8.1 19.5h70.9v-14.9l6.3 15h36.8l6.5-15.3zm277.7-80.1c6.8-7 17.5-10.3 32-10.3H521v18.8h-20c-7.7 0-12 1.1-16.2 5.2-3.6 3.7-6.1 10.7-6.1 19.9 0 9.4 1.9 16.2 5.8 20.6 3.2 3.5 9.2 4.5 14.7 4.5h9.5l29.8-69h31.6l35.7 83.1V17H638l37.1 61.2V17h21.6v87.9h-29.9l-40-66v66h-43l-8.2-19.6h-43.8l-8 19.6h-24.7c-10.3 0-23.2-2.3-30.6-9.7-7.4-7.5-11.3-17.6-11.3-33.6.1-13 2.4-24.9 11.4-34.3zM425.2 17h21.5v87.9h-21.5V17zm-97 0h48.5c10.8 0 18.7.3 25.5 4.2 6.7 3.9 10.7 9.7 10.7 19.5 0 14-9.4 21.3-14.9 23.4a24 24 0 0 1 10.4 7.4c3 4.4 3.5 8.3 3.5 16.1v17.3h-21.3l-.1-11.1c0-5.3.5-12.9-3.3-17.1-3.1-3.1-7.8-3.8-15.4-3.8h-22.6v32h-21.1l.1-87.9zm-85.1 0h70.5v18.3h-49.4v15.8h48.2v18h-48.2v17.6h49.4v18.2h-70.5V17z" fill="#2557d6"/></svg>