<?xml version="1.0" standalone="no"?>
<!DOCTYPE svg PUBLIC "-//W3C//DTD SVG 20010904//EN"
 "http://www.w3.org/TR/2001/REC-SVG-20010904/DTD/svg10.dtd">
<svg version="1.0" xmlns="http://www.w3.org/2000/svg"
 width="25.000000pt" height="25.000000pt" viewBox="0 0 25.000000 25.000000"
 preserveAspectRatio="xMidYMid meet">

<g transform="translate(0.000000,25.000000) scale(0.100000,-0.100000)"
fill="#000000" stroke="none">
<path d="M109 198 c-30 -24 -69 -85 -69 -107 0 -54 36 -77 72 -45 16 16 18 16
24 0 7 -19 45 -21 62 -4 21 21 13 64 -20 114 -37 54 -47 60 -69 42z m61 -55
c34 -42 37 -79 7 -97 -16 -9 -22 -7 -34 12 l-16 23 -23 -22 c-19 -18 -26 -20
-39 -9 -8 7 -15 23 -15 36 0 26 55 94 75 94 8 0 28 -17 45 -37z"/>
</g>
</svg>
