<?xml version="1.0" standalone="no"?>
<!DOCTYPE svg PUBLIC "-//W3C//DTD SVG 20010904//EN"
 "http://www.w3.org/TR/2001/REC-SVG-20010904/DTD/svg10.dtd">
<svg version="1.0" xmlns="http://www.w3.org/2000/svg"
 width="18.000000pt" height="21.000000pt" viewBox="0 0 18.000000 21.000000"
 preserveAspectRatio="xMidYMid meet">

<g transform="translate(0.000000,21.000000) scale(0.100000,-0.100000)"
fill="#000000" stroke="none">
<path d="M40 165 c-31 -33 -31 -97 0 -130 13 -14 31 -25 40 -25 31 0 63 46 63
90 0 44 -32 90 -63 90 -9 0 -27 -11 -40 -25z m64 -11 c18 -18 21 -76 6 -105
-14 -25 -46 -25 -60 0 -15 29 -12 87 6 105 19 20 29 20 48 0z"/>
</g>
</svg>
