<?xml version="1.0" standalone="no"?>
<!DOCTYPE svg PUBLIC "-//W3C//DTD SVG 20010904//EN"
 "http://www.w3.org/TR/2001/REC-SVG-20010904/DTD/svg10.dtd">
<svg version="1.0" xmlns="http://www.w3.org/2000/svg"
 width="23.000000pt" height="23.000000pt" viewBox="0 0 23.000000 23.000000"
 preserveAspectRatio="xMidYMid meet">

<g transform="translate(0.000000,23.000000) scale(0.100000,-0.100000)"
fill="#000000" stroke="none">
<path d="M69 179 c-18 -18 -21 -29 -16 -71 8 -62 20 -78 62 -78 42 0 54 16 62
78 5 42 2 53 -16 71 -11 11 -32 21 -46 21 -14 0 -35 -10 -46 -21z m75 -5 c11
-4 16 -19 16 -53 0 -51 -6 -64 -33 -74 -30 -11 -54 9 -61 53 -10 66 21 96 78
74z"/>
</g>
</svg>
