<?xml version="1.0" encoding="utf-8"?>
<!-- Generator: Adobe Illustrator 27.0.1, SVG Export Plug-In . SVG Version: 6.00 Build 0)  -->
<svg version="1.1" id="Layer_2" xmlns="http://www.w3.org/2000/svg" xmlns:xlink="http://www.w3.org/1999/xlink" x="0px" y="0px"
	 viewBox="0 0 890.3 626.23" style="enable-background:new 0 0 890.3 626.23;" xml:space="preserve">
<style type="text/css">
	.st0{fill:#FFFFFF;}
</style>
<g>
	<path class="st0" d="M409.34,295.19c-0.07-0.04-0.14-0.07-0.2-0.1C410.47,295.76,410.53,295.79,409.34,295.19z"/>
	<path class="st0" d="M353.63,298.71C353.63,298.71,353.63,298.71,353.63,298.71c0.01,0.01,0.01,0.01,0.02,0.01
		C353.64,298.71,353.64,298.71,353.63,298.71C353.63,298.71,353.63,298.71,353.63,298.71z"/>
	<path class="st0" d="M610.12,280.22C610.12,280.22,610.12,280.22,610.12,280.22c0.01,0.01,0.01,0.01,0.02,0.01
		C610.13,280.23,610.13,280.22,610.12,280.22C610.12,280.22,610.12,280.22,610.12,280.22z"/>
	<path class="st0" d="M788.55,340.24c-6.23-2.27-19.72,2.37-14.12,11.09c2.75,4.29,6.07,7.25,8.26,11.24
		c2.53,4.6,3.49,9.84,4.18,14.99c1.37,10.24,0.07,20.29-1.75,30.37c-1.8,9.91-8.6,19.76-15.32,27.03
		c-6.65,7.19-14.88,13.12-24.04,16.66c-8.22,3.18-17.48,4.46-26.11,2.23c-10.5-2.71-18.62-9.35-25.34-17.65
		c-6.29-7.76-8.67-18.11-10.12-27.74c-1.65-11.01-1.44-22.21-0.05-33.24c1.81-14.39,6.4-27.85,9.48-41.92
		c1.92-8.76-13.22-12.5-18.03-6.64c-7.51,9.14-11.27,20.04-14.34,31.32c-1.12,4.12-1.98,8.3-2.61,12.51
		c-2.28,5.64-4.47,11.33-7.09,16.75c-3.45,7.15-7.82,14-12.22,20.61c-4.13,6.2-8.79,12.08-14.17,17.24
		c-1.14,1.09-2.2,1.81-3.56,2.59c-0.88,0.5-1.79,0.94-2.7,1.38c0.06-0.03-1.29,0.57-1.66,0.75c-0.2,0.07-0.34,0.12-0.42,0.15
		c-0.65,0.11-1.56,0.26-2.16,0.37c-0.23,0.01-0.52,0.02-0.77,0.02c-0.52-0.39-1.47-1.14-1.1-0.77c-1.13-1.06-1.26-1.48-2.15-3.12
		c-0.28-0.45-0.52-0.91-0.74-1.38c0.41,0.83-0.4-1.14-0.48-1.47c-0.49-1.88-0.89-3.81-1.22-5.73c-0.77-4.47-0.59-6.09-0.27-10.72
		c0.32-4.68,0.89-9.32,1.64-13.95c2.78-16.94,9.18-33.25,10.71-50.37c0.87-9.75-15.71-13.69-19.75-4.99c-0.15,0.33-0.3,0.67-0.46,1
		c-0.8,0.67-1.41,1.57-1.71,2.72c-0.28,1.1-0.6,2.2-0.93,3.28c-1.49,3.53-2.88,7.11-4.18,10.73c-6.17,12.95-15.77,24.2-27.17,33
		c0.32-2.6,0.56-5.2,0.72-7.78c1-16.23-1.06-34.67-12.29-47.29c-12.43-13.97-33.92-16.04-50.54-9.54
		c-16.34,6.4-29.82,20.22-34.05,37.43c-3.19,13.01,1.65,24.98,9.81,34.57c-0.49,1.86-0.94,3.74-1.33,5.62
		c-9.58,4.4-18.37,10.61-27.22,16.32c-3.03,1.95-6.03,3.95-9.01,5.96c-0.01-7.27-0.17-14.54-0.49-21.81
		c-0.38-8.91-0.82-17.84-1.59-26.73c-0.85-9.8-3.28-18.99-5.11-28.63c-1.29-6.84-14.99-8.27-15.62-0.5
		c-0.29,3.62-0.8,7.22-1.25,10.82c-0.65,1.48-1.29,2.96-1.91,4.47c-3.07,7.45-6.98,14.62-11,21.59
		c-9.22,15.95-20.34,30.48-33.7,43.19c-2.93,2.79-6.02,5.4-9.1,8.02c-0.56,0.47-1.12,0.93-1.69,1.39c0.09-0.09-1.33,1.01-1.41,1.08
		c-1.58,1.17-3.21,2.28-4.83,3.38c-1.27,0.86-2.59,1.63-3.94,2.37c-0.32,0.17-0.65,0.33-0.98,0.49c-0.31,0.14-0.82,0.36-1.05,0.45
		c-0.52,0.19-2.09,0.53-2.66,0.68c-0.03,0-0.06,0-0.09,0.01c-0.18-0.06-0.36-0.13-0.54-0.2c-0.15-0.13-0.33-0.28-0.51-0.44
		c-0.27-0.42-0.77-1.15-1.02-1.63c-0.11-0.37-0.2-0.73-0.29-1.1c-0.23-0.97-0.35-1.96-0.45-2.94c-0.05-0.53-0.06-2.36-0.04,0.1
		c0.01,0.71-0.04-1.25-0.07-2.25c0.01-1.17,0.06-2.35,0.15-3.52c0.88-12,4.74-23.81,7.96-35.33c3.29-11.76,5.42-24.53,5.91-36.76
		c0.4-9.91-0.65-19.74-9.04-26.18c-11.12-8.54-28.95-5.91-41.52-3.32c-47.85,9.87-85.66,50.52-111.76,89.38
		c-18.73,27.9-35.53,62.09-33.82,96.66c0.41,8.21,2.62,16.46,8.26,22.63c6.54,7.16,15.28,8.01,24.41,7.02
		c1.28-0.14,1.22-1.78-0.05-1.87c-37.44-2.45-24.65-52.94-16.77-75.57c6.39-18.36,16.47-35.59,27.52-51.5
		c14.73-21.22,32.56-40.78,53.24-56.34c18.64-14.03,40.5-24.78,64.04-26.53c9.6-0.72,22.8,0,26.43,10.81
		c3.45,10.29-0.84,21.57-4.77,31.05c-5,12.06-10.49,23.82-14.85,36.16c-1.96,5.54-3.71,10.65-4.94,17.5
		c-0.85,4.75-1.07,9.94,0.35,14.61c4.19,13.8,18.73,18.66,31.87,15.79c15.21-3.32,27.26-16.68,36.48-28.3
		c9.32-11.76,17.96-24.33,25.53-37.38c0.09,15.47-0.02,30.99-0.77,46.45c-0.02,0.32-0.04,0.65-0.05,0.97
		c-19.85,14.91-38.46,31.25-55.04,49.77c-15.73,17.58-29.39,36.73-40.61,57.48c-7.16,13.24-12.18,29.1-12.43,44.21
		c-0.26,15.56,6.38,30.28,23.43,32.36c21.02,2.56,41.25-12.9,54.33-27.61c34.19-38.47,50.72-89.95,54.62-140.41
		c0.57-7.41,0.93-14.82,1.11-22.25c4.4-3.03,8.82-6.04,13.28-9.01c6.99-4.66,14.49-8.87,21.52-13.63c-0.36,5.51-0.11,11.06,1,16.58
		c3.24,16.16,15.94,26.23,32.32,26.42c8.41,0.1,15.96-3.28,22.71-6.84c7.12-3.77,13.05-10.26,17.63-16.77
		c5.52-7.82,9.44-16.8,12.09-26.17c7.68-4.22,14.82-9.47,21.27-15.36c-0.23,1.3-0.45,2.61-0.66,3.91
		c-1.48,9.39-1.92,19.73,0.84,28.93c2.91,9.69,12.44,19.42,22.09,22.41c20.12,6.23,34.22-13.04,43.77-27.81
		c3.05-4.73,5.85-9.67,8.46-14.7c3.13,20.57,13.59,38.39,31,51.1c17.71,12.93,40.99,16.33,61.59,8.98
		c20.06-7.16,36.21-23.52,45.79-42.25c6.63-12.98,11.42-25.84,11.42-40.63C808.12,365.96,804.36,346,788.55,340.24z M403.35,523.56
		c-7.11,21.51-17.67,42.56-31.76,60.37c-6.28,7.93-13.51,15.67-22.01,21.23c-3.72,2.44-7.06,3.96-11.26,5.23
		c-2.04,0.61-1.86,0.57-4.27,0.79c-0.42,0.04-0.65,0.07-0.78,0.09c-0.02,0-0.02,0-0.04,0c-0.35-0.02-1.92-0.32-2.15-0.31
		c-0.11-0.04-0.21-0.08-0.32-0.12c0.32,0.11-0.83-0.42-1.13-0.62c-0.08-0.05-0.14-0.09-0.21-0.13c-0.06-0.06-0.14-0.14-0.24-0.23
		c-0.4-0.38-0.77-0.8-1.12-1.23c0.51,0.59-0.57-0.86-0.65-1c-0.37-0.61-0.69-1.26-1-1.91c-0.67-1.38-0.89-2.2-1.38-4.12
		c-1.79-7.07-1.46-14.52-0.88-21.72c1.44-17.79,7.41-33.82,16.37-49.17c12.97-22.22,31.99-40.55,51.45-57.08
		c7.77-6.6,15.74-12.94,23.85-19.07C414.07,477.93,410.51,501.91,403.35,523.56z M483.7,364.34c2.96-15.77,17.67-28.18,32.66-31.94
		c15.21-3.82,29.37,4.9,34.23,19.37c5.01,14.9,3.58,32.08-1.05,47.11c-11.96,5.71-25.42,8.55-38.14,4.75
		c-2.37-0.71-4.68-1.65-6.92-2.79c0.18-0.95,0.37-1.91,0.58-2.85c0.31-1.45,0.68-2.89,1.05-4.33c0.2-0.75,1.63-5.12,0.64-2.26
		c0.54-1.56,0.94-3.15,1.39-4.74c0.03,0,0.79-2.3,0.98-2.81c0.78-2.06,1.69-4.07,2.77-5.98c-1.64,2.92,0.12-0.54,0.9-2.24
		c-0.17,0.09-0.41,0.22-0.77,0.46c0.3-0.2,0.58-0.4,0.83-0.61c0.15-0.33,0.25-0.58,0.27-0.66c-0.03,0.19-0.06,0.36-0.09,0.51
		c0.09-0.07,0.17-0.15,0.25-0.23c0.01-0.02,0.03-0.05,0.04-0.07c-0.01,0.02-0.03,0.05-0.04,0.07c7.68-6.83-5.34-17.11-13.36-11.83
		c-1.54,1.02-2.99,1.94-4.46,3.03c-0.3,0.3-2.58,2.25-3.09,2.89c-1.19,1.5-2.28,3.07-3.34,4.65c-1.42,2.12-2.67,4.31-3.78,6.57
		C483.33,375.41,482.65,369.96,483.7,364.34z M535.96,426.24c-4.65,5.93-9.98,9.95-16.4,11.58c-0.77,0.2-2.53,0.07-4.27,0.06
		c-0.3,0-1.39-0.02-1.73-0.01c-0.36-0.03-0.72-0.05-1.09-0.07c-0.57-0.02-2.11-0.37-2.9-0.54c-0.23-0.09-0.46-0.17-0.69-0.26
		c-0.39-0.22-0.76-0.47-1.13-0.73c-0.42-0.46-0.99-1.18-1.3-1.58c-0.38-0.64-0.74-1.29-1.09-1.93c-0.29-0.54-0.54-1.1-0.8-1.66
		c-0.06-0.14-0.11-0.24-0.16-0.35c-0.83-2.56-1.28-5.23-1.58-7.9c-0.06-0.57-0.19-3.02-0.23-3.33c0-1.12,0.02-2.25,0.07-3.37
		c0.05-1.16,0.12-2.31,0.22-3.47c10.96,4.26,23.09,5.07,35.01,2.72c1.9-0.37,3.77-0.83,5.63-1.34
		C541.37,418.38,538.88,422.52,535.96,426.24z M614.52,430.49c-0.17-0.01-0.31-0.02-0.43-0.02c0,0,0,0,0,0c-0.01,0-0.01,0-0.02-0.01
		c0,0,0,0,0,0C614.2,430.47,614.35,430.48,614.52,430.49z"/>
	<path class="st0" d="M879.42,97.47c-13.81-36.11-43.23-64.71-78.32-80.22C763.32,0.55,719.87-3.06,679.24,2.31
		c-27.25,3.6-54.28,10.5-80.76,17.73c-28.39,7.75-56.35,17.03-84.01,27.05c-55.38,20.06-109.5,43.38-164.26,65.04
		c-15.39,6.09-30.84,12.02-46.37,17.73c2.71-7.24,6-14.26,9.75-21.02c1.76-3.17,3.94-6.48,5.97-9.25c1.12-1.53,2.34-2.98,3.6-4.4
		c1.31-1.48,1.78-3.47,2.91-5.09c3.24-4.69-5.04-8.43-8.57-7.08c-4.53,1.73-7.87,3.37-11.68,6.49c-3.47,2.84-6.43,6.16-9.23,9.65
		c-6.19,7.72-10.96,16.31-15.05,25.29c-2.31,5.06-4.35,10.26-6.17,15.56c-2.7,0.93-5.4,1.86-8.11,2.77
		c-20.18,6.8-40.67,13.49-61.43,18.77c1.3-8.4,2.66-16.78,4.37-25.11c0.98-4.8,2.41-10.13,2.24-15.02c0.11,3.08,0.37-1.97,0.52-3.09
		c0.17-1.23,0.39-2.46,0.68-3.68c1.83-7.72-12.27-11.68-16.35-6.03c-6.02,8.33-9.33,17.24-11.88,27.2
		c-2.68,10.48-4.88,21.04-6.68,31.68c-15.36,2.77-31.05,4.22-46.63,5.02c-13.41,0.68-27.23-0.64-40.32-3.65
		c-22.21-5.11-42.81-17.25-58.05-34.15C18.24,117.5,9.3,94.84,8.86,71.7c-0.39-20.62,6.41-42.87,24.12-54.94
		c3.57-2.44,7.44-4.4,11.57-5.71c5.7-1.8,1.06-8.4-3.69-6.89C-3.76,18.27-7.31,74.92,8.71,111.84
		c9.01,20.76,25.39,37.72,44.58,49.38c20.5,12.45,43.88,17.85,67.66,18.76c15.63,0.6,31.69-1.12,47.17-3.19
		c3.14-0.42,6.26-0.92,9.38-1.45c-0.15,1.02-0.31,2.04-0.45,3.06c-4.62,32.55-7.57,65.87-1.3,98.37c1.32,6.86,3.38,13.59,5.88,20.11
		c0.96,2.52,2.05,5.01,3.46,7.32c0.66,1.08,1.38,2.13,2.12,3.16c-0.79-1.09,2.87,4.06,1.08,1.47c0.72,1.04,1.47,2.05,2.24,3.05
		c6.98,9.07,18.49,13.52,29.73,11.61c18.92-3.21,29.97-20.06,36.99-36.52c1.97-4.62,3.94-9.51,5.65-14.53
		c0.35,1.84,0.74,3.67,1.21,5.49c1.78,6.94,4.18,14.03,7.04,20.59c1.57,3.6,3.26,7.27,6.18,9.95c3.83,3.52,10.07,5.38,14.87,2.6
		c7.26-4.19,5.19-12.19,3.36-18.88c-1.81-6.61-4.38-12.92-5.85-19.65c-0.12-0.53-0.21-1.07-0.32-1.6
		c1.38-6.43,3.35-12.74,5.98-18.89c6.39-14.94,13.07-30.04,23.09-42.97c3.64-4.69,7.79-9.37,13.03-12.29
		c1.74-0.97,3.04-1.27,4.64-1.33c-0.95,0.03,1.84,0.88-0.21-0.16c1.6,0.81,0.77,0.25,2.04,1.63c2.65,2.88,3.86,8.51,3.7,11.45
		c-0.38,6.85-2.27,13.98-3.81,20.65c-3.79,16.43-8.7,32.57-9.74,49.49c-0.24,3.9-0.28,7.92,0.31,11.78c0.32,2.11,1.24,4.05,2.27,5.9
		c0.51,0.7,1.01,1.4,1.52,2.09c-0.89-1.09-1.07-1.18-0.52-0.25c0.4,0.79,0.88,1.54,1.37,2.28c4.15,6.25,10.34,10.06,17.74,11.25
		c17.24,2.78,29.01-15.45,35.3-28.79c1.98-4.19,3.94-8.41,5.82-12.69c1.47,9.15,5.53,17.5,13.92,23.14c0.62,0.42,1.28,0.8,1.93,1.17
		c0.66,0.33,1.18,0.59,1.57,0.79c1.1,0.57,2.21,1.12,3.34,1.64c3.66,1.73,7.84,2.35,11.85,2.37c6.54,0.02,12.7-1.88,17.92-5.86
		c3.13-2.38,6.04-5.36,8.65-8.7c10.12,9.77,23.81,8.24,34.82,0.96c6.91-4.56,12.53-11.01,17.43-17.59
		c5.33-7.15,10.34-14.25,14.55-22.15c0.44-0.83,0.88-1.67,1.32-2.51c0.07,5.57,0.41,11.13,1.02,16.66c0.55,4.99,1.42,9.9,2.94,14.69
		c1.91,6.05,5.37,10.25,10.99,13.06c3.05,1.53,8.57,0.86,10.81-1.91c5.82-7.23,1.81-17.6,0.58-25.93c-0.17-1.13-0.32-2.26-0.45-3.39
		c1.39-7.85,3.59-15.53,6.77-22.98c6.38-14.94,13.07-30.04,23.09-42.97c3.64-4.69,7.79-9.37,13.03-12.29
		c1.74-0.97,3.04-1.27,4.64-1.33c-0.95,0.03,1.84,0.88-0.21-0.16c1.6,0.81,0.77,0.25,2.04,1.63c2.65,2.88,3.86,8.51,3.7,11.45
		c-0.38,6.85-2.27,13.98-3.81,20.65c-3.79,16.43-8.7,32.57-9.74,49.49c-0.24,3.9-0.28,7.92,0.31,11.78c0.32,2.11,1.24,4.05,2.27,5.9
		c0.51,0.7,1.01,1.4,1.52,2.09c-0.9-1.09-1.07-1.18-0.52-0.25c0.4,0.79,0.88,1.54,1.37,2.28c4.15,6.25,10.34,10.06,17.74,11.25
		c17.24,2.78,29.01-15.45,35.3-28.79c2.44-5.17,4.87-10.4,7.12-15.71c0.34,10.45,0.71,20.46,4.84,30.49
		c3.32,8.05,11.14,13.57,19.95,11.75c8.86-1.83,6.35-11.88,3.93-17.63c-3.2-7.59-3.35-16.46-3.37-24.98
		c1.49,0.58,3.04,0.98,4.62,1.23c1.74,2.82,4.36,4.98,6.1,7.91c3.58,6,8.06,11.54,12.79,16.66c9.53,10.32,20.98,19.1,33.13,26.11
		c20.53,11.84,44.03,15.42,67.01,9.34c39.8-10.54,66.72-50.62,80.15-87.12C893.43,182.7,894.58,137.1,879.42,97.47z M264.2,187
		c-2.8,17.25-3.88,34.82-3.77,52.31c-6.47,14.67-9.13,30.72-16.22,45.28c-3.95,8.11-8.86,15.73-15.81,21.6
		c-2.54,2.15-5.6,3.62-8.77,4.53c-1.21,0.35-2.55,0.37-3.93,0.41c-0.01,0-0.02,0-0.03,0c-0.04,0-0.06,0-0.1-0.01
		c-0.72-0.05-1.43-0.16-2.15-0.28c-0.23-0.04-0.38-0.06-0.5-0.07c-0.16-0.07-0.42-0.17-0.86-0.32c-0.41-0.14-0.66-0.22-0.83-0.27
		c-0.09-0.06-0.23-0.15-0.45-0.27c-0.68-0.38-1.31-0.84-1.93-1.31c0.52,0.34-1.53-1.52-1.95-1.99c-0.25-0.28-0.48-0.58-0.72-0.88
		c-0.16-0.21-0.33-0.44-0.4-0.55c-0.65-0.96-1.21-1.96-1.68-3.01c-0.25-0.55-0.47-1.1-0.69-1.66c-0.01-0.04-0.02-0.06-0.04-0.09
		c-0.02-0.08-0.05-0.16-0.09-0.26c-0.48-1.43-0.99-2.86-1.43-4.3c-1.85-5.96-2.77-12.17-3.38-18.36c-0.3-3.11-0.47-6.24-0.58-9.36
		c0.01,0.02-0.03-1.59-0.03-1.77c-0.01-0.89-0.01-1.79-0.01-2.68c0-2.13,0.07-4.27,0.08-6.4c0.13-28.74,2.03-57.23,6.36-85.66
		c0.11-0.71,0.22-1.42,0.32-2.13c2.9-0.73,5.8-1.49,8.69-2.27c19.93-5.39,39.65-11.54,59.2-18.18
		C268.85,161.5,266.25,174.34,264.2,187z M468.85,279.44c-0.01-0.01-0.01-0.02-0.02-0.03c0.08,0.03,0.17,0.06,0.32,0.09
		C469.03,279.47,468.93,279.45,468.85,279.44z M680.51,234.37c-0.93,0.22-1.87,0.48-2.82,0.77c0.62-4.43,1.31-8.85,2.49-13.26
		c2.56-9.54,6.45-18.73,11.08-27.44c7.74-14.56,21.14-33.13,39.57-33.16c3.56-0.01,7.93,0.98,10.81,2.78
		c1.65,1.03,2.54,3.36,2.55,4.62c0.12,7.97-3.73,15.09-7.85,21.84c-5.79,9.47-13.73,17.52-22.23,24.96
		C704.46,223.92,693.1,231.35,680.51,234.37z M870.13,198.99c-9.66,36.41-32.46,75.1-67.87,91.27c-16.85,7.69-34.76,6.37-51.11-1.49
		c-11.25-5.41-21.8-13.56-30.8-22.14c-4.26-4.06-8.36-8.5-11.72-13.35c-1.8-2.6-3.35-5.14-5.5-7.45c-0.05-0.18-0.1-0.36-0.16-0.54
		c2.13-0.88,4.16-1.81,6.04-2.73c12.63-6.21,23.53-15.91,33.17-26.02c11.62-12.19,26.32-33.79,19.19-51.42
		c-7.29-18.03-33.45-16.61-47.48-8.43c-7.72,4.49-13.53,11.51-18.91,18.48c-6.01,7.78-10.78,16.45-14.73,25.43
		c-2.06,4.68-3.84,9.5-5.35,14.39c0.24-7.29,0.66-14.58,1.19-21.85c1.54-21.5,4.92-42.85,9-64c2.09-10.83,4.48-21.62,6.98-32.36
		c2.22-9.52,6.41-22.09,2.79-31.58c-1.19-3.11-6.74-4.15-9.25-2.29c-5.88,4.36-8.64,11.43-11.27,18.06
		c-3.02,7.63-5.36,15.48-7.7,23.33c-4.39,14.73-7.94,29.79-10.68,44.91c-4.63,25.55-6.88,51.29-6.8,77.18
		c-3.81,9.18-7.43,18.44-12.21,27.21c-4.36,7.99-9.7,15.5-16.45,21.61c-2.19,1.99-4.61,3.95-7.04,4.75
		c-0.05,0.02-1.05,0.27-1.35,0.37c-0.43,0.02-0.98,0.04-0.96,0.07c-0.34-0.05-0.68-0.1-1.01-0.17c0.07,0.04,0.13,0.08,0.22,0.14
		c-0.09-0.05-0.15-0.09-0.22-0.12c0,0,0-0.01-0.01-0.01c-0.01,0-0.02,0-0.03,0c0,0-0.01,0-0.01,0c0.01,0,0.02,0,0.03,0c0,0,0,0,0,0
		c0,0,0.01,0,0.01,0.01c0.93,0.14,0.24-0.23-0.2-0.37c-0.13-0.26-0.26-0.52-0.38-0.78c-0.02-0.09-0.05-0.21-0.09-0.38
		c-0.28-1.04-0.41-2.11-0.5-3.18c0.14,1.57,0.21-0.26,0.28-0.77c0.25-1.6,0.13-3.21,0.02-4.83c-0.01-0.26-0.03-0.51-0.04-0.77
		c0.05,2.01,0.03,1.48-0.05-1.58c-0.01-0.22-0.06-1.14-0.08-1.51c-0.01-1.46,0.02-2.93,0.08-4.39c0.17-4.18,0.64-8.35,1.18-12.49
		c2.12-16.35,5.44-32.69,6.21-49.18c0.61-12.94-4.17-26.98-17.69-31.33c-12.13-3.9-22.12,4.55-29.09,13.58
		c-9.55,12.38-16.83,27.64-21.59,42.49c-1.44,4.49-2.82,9.13-4,13.86c0.01-1.92,0.03-3.83,0.08-5.74
		c0.23-9.48,1.37-18.89,2.03-28.34c0.67-9.6,2-19.22,0.59-28.82c-1.04-7.06-14.06-9.13-16.9-2.38c-3.75,8.92-5.2,18.47-6.98,27.92
		c-0.89,4.7-1.57,9.46-2.13,14.23c-2.38,7.32-4.83,14.61-8.29,21.58c-6.88,13.88-15.9,26.65-28.37,36.01
		c-4.22,3.17-9.44,6.18-14.83,6.43c0.37-0.04-0.37-0.17-0.64-0.17c-0.06-0.08-0.12-0.17-0.18-0.25c0.03-0.15-0.54-1.68-0.61-2.06
		c-0.8-4.49-1.51-8.97-1.3-13.28c0.16-3.28,1.01-7.12,0.38-10.36c-0.91-4.71-6.89-8.55-11.6-7.81c-6.21,0.98-8.94,3.89-10.36,9.83
		c-0.79,3.31-1.13,6.6-1.11,9.99c0,0.64,0.02,1.27,0.06,1.9c-2.57,5.25-5.68,10.16-10.12,14.41c-1.44,1.38-5.81,4.78-7.53,4.32
		c-1.45-0.39-2.66-1.31-3.81-2.3c-0.15-0.13-0.47-0.53-0.69-0.81c-0.34-0.59-0.65-1.2-0.94-1.82c-0.02-0.04-0.03-0.05-0.04-0.09
		c-0.02-0.06-0.03-0.1-0.05-0.17c-0.22-0.72-0.47-1.43-0.7-2.14c-0.51-1.54-0.83-3.14-1.25-4.7c-1.04-3.86-1.27-7.85-1.47-11.82
		c0.12,2.41,0.02-0.91,0.02-1.15c0.01-1.03,0.05-2.06,0.1-3.08c0.1-2.12,0.31-4.22,0.56-6.33c0.56-4.75,1.54-9.44,2.73-14.06
		c1.88-7.33,5.18-16.28,9.23-24.14c1.56-3.04,4.26-7.29,5.47-8.86c1.09-1.42,2.29-2.75,3.53-4.04c1.39-1.44,3.03-2.72,3.19-2.83
		c3.63-2.57,3.71-2.67,7.48-3.37c4.01-0.75,6.18,0.01,9.46,2.36c6.38,4.58,7.36,15.84,7.12,22.89c-0.17,5.06-0.32,10.18-0.59,15.25
		c-0.02,0.4,0.58,0.6,0.84,0.31c10.89-12.5,11.11-33.84-0.04-46.4c-6.59-7.42-19.73-9.05-28.78-7.15c-7.89,1.66-14.52,6.82-20,12.52
		c-12.81,13.32-20.46,31.11-24.34,49c-4.09,9.76-7.86,19.66-12.96,29c-4.36,7.99-9.7,15.5-16.45,21.61
		c-2.19,1.99-4.61,3.95-7.04,4.75c-0.05,0.02-1.05,0.27-1.35,0.37c-0.43,0.02-0.98,0.04-0.96,0.07c-0.34-0.05-0.68-0.1-1.01-0.17
		c0.07,0.04,0.13,0.08,0.22,0.14c-0.09-0.05-0.15-0.09-0.22-0.12c0,0,0-0.01-0.01-0.01c-0.01,0-0.02,0-0.03,0c0,0-0.01,0-0.01,0
		c0.01,0,0.02,0,0.03,0c0,0,0,0,0,0c0,0,0.01,0,0.01,0.01c0.93,0.14,0.24-0.23-0.2-0.37c-0.13-0.26-0.26-0.52-0.38-0.78
		c-0.02-0.09-0.05-0.21-0.09-0.38c-0.28-1.04-0.41-2.12-0.5-3.19c0.14,1.58,0.21-0.25,0.28-0.76c0.25-1.6,0.13-3.21,0.02-4.83
		c-0.01-0.26-0.03-0.51-0.04-0.77c0.05,2.01,0.03,1.48-0.05-1.58c-0.02-0.22-0.06-1.14-0.08-1.51c-0.01-1.46,0.02-2.93,0.08-4.39
		c0.17-4.18,0.64-8.35,1.18-12.49c2.12-16.35,5.44-32.69,6.21-49.18c0.61-12.94-4.17-26.98-17.69-31.33
		c-12.13-3.9-22.12,4.55-29.09,13.58c-9.55,12.38-16.83,27.64-21.59,42.48c-1.49,4.67-2.93,9.5-4.15,14.42
		c-0.35-4.03-0.56-8.07-0.73-12.05c-0.02-0.5-0.04-1.01-0.06-1.52c0.02,0.58-0.05-2.04-0.05-2.1c-0.04-2.26-0.04-4.52-0.03-6.78
		c0.02-4.76,0.17-9.51,0.39-14.27c0.48-10.14,1.51-20.23,2.72-30.31c2.08-17.39,5.72-35.14,10.88-51.49
		c54.35-19.78,107.48-42.71,161.17-64.15c54.6-21.8,110.08-42.28,167.41-55.74c44.78-10.52,91.48-17.61,136.71-5.25
		c36.41,9.95,70.95,31.13,90.67,64.03C877.97,113.57,880.62,159.48,870.13,198.99z"/>
	<path class="st0" d="M513.05,375.33c-0.06,0.05-0.12,0.1-0.18,0.15c-0.02,0.05-0.04,0.09-0.07,0.15c0.09-0.04,0.16-0.08,0.21-0.09
		C513.02,375.47,513.03,375.4,513.05,375.33z"/>
	<path class="st0" d="M512.98,375.68c0.02-0.05,0.05-0.11,0.08-0.17c-0.02,0-0.03,0.01-0.05,0.01
		C513,375.58,512.99,375.63,512.98,375.68z"/>
	<path class="st0" d="M513.14,375.5C513.14,375.57,513.2,375.51,513.14,375.5L513.14,375.5z"/>
	<path class="st0" d="M513.06,375.51c0.04-0.01,0.07-0.01,0.08-0.01c0-0.05,0.03-0.16,0.17-0.41c0,0,0,0,0,0
		c-0.08,0.13-0.16,0.25-0.23,0.38C513.07,375.49,513.06,375.5,513.06,375.51z"/>
	<path class="st0" d="M512.98,375.68C512.69,376.31,512.77,376.63,512.98,375.68L512.98,375.68z"/>
	<path class="st0" d="M494.46,367.08c0.34-0.27,0.68-0.53,1.02-0.78C495.61,366.17,495.38,366.35,494.46,367.08z"/>
</g>
</svg>
