<svg width="24" height="24" viewBox="0 0 24 24" fill="none" xmlns="http://www.w3.org/2000/svg">
<path d="M12.0001 2C10.2459 2 8.78526 3.31072 8.5401 5H5.1192C5.07662 4.99271 5.03349 4.98912 4.9903 4.98926C4.95297 4.99006 4.91576 4.99365 4.87897 5H3.25006C3.15068 4.99859 3.05201 5.01696 2.95978 5.05402C2.86755 5.09108 2.78361 5.1461 2.71284 5.21588C2.64206 5.28566 2.58586 5.36882 2.5475 5.46051C2.50913 5.5522 2.48938 5.65061 2.48938 5.75C2.48938 5.84939 2.50913 5.9478 2.5475 6.03949C2.58586 6.13118 2.64206 6.21434 2.71284 6.28412C2.78361 6.3539 2.86755 6.40892 2.95978 6.44598C3.05201 6.48304 3.15068 6.50141 3.25006 6.5H4.3194L5.57819 19.5146C5.71373 20.918 6.90595 22 8.31549 22H15.6837C17.0933 22 18.2855 20.9181 18.421 19.5146L19.6807 6.5H20.7501C20.8494 6.50141 20.9481 6.48304 21.0403 6.44598C21.1326 6.40892 21.2165 6.3539 21.2873 6.28412C21.3581 6.21434 21.4143 6.13118 21.4526 6.03949C21.491 5.9478 21.5107 5.84939 21.5107 5.75C21.5107 5.65061 21.491 5.5522 21.4526 5.46051C21.4143 5.36882 21.3581 5.28566 21.2873 5.21588C21.2165 5.1461 21.1326 5.09108 21.0403 5.05402C20.9481 5.01696 20.8494 4.99859 20.7501 5H19.1221C19.0426 4.98709 18.9615 4.98709 18.8819 5H15.46C15.2149 3.31072 13.7542 2 12.0001 2ZM12.0001 3.5C12.9396 3.5 13.7104 4.13408 13.9307 5H10.0694C10.2897 4.13408 11.0605 3.5 12.0001 3.5ZM5.82526 6.5H18.1739L16.9278 19.3701C16.8653 20.0177 16.334 20.5 15.6837 20.5H8.31549C7.66603 20.5 7.13381 20.0168 7.07135 19.3701L5.82526 6.5ZM10.2383 8.98926C10.0396 8.99236 9.85022 9.07423 9.71179 9.21686C9.57336 9.3595 9.49721 9.55125 9.50006 9.75V17.25C9.49866 17.3494 9.51702 17.4481 9.55408 17.5403C9.59114 17.6325 9.64616 17.7164 9.71594 17.7872C9.78572 17.858 9.86888 17.9142 9.96057 17.9526C10.0523 17.9909 10.1507 18.0107 10.2501 18.0107C10.3495 18.0107 10.4479 17.9909 10.5396 17.9526C10.6312 17.9142 10.7144 17.858 10.7842 17.7872C10.854 17.7164 10.909 17.6325 10.946 17.5403C10.9831 17.4481 11.0015 17.3494 11.0001 17.25V9.75C11.0015 9.64962 10.9828 9.54997 10.945 9.45695C10.9072 9.36394 10.8511 9.27946 10.7801 9.20852C10.7091 9.13758 10.6245 9.08161 10.5315 9.04395C10.4384 9.00629 10.3387 8.98769 10.2383 8.98926ZM13.7383 8.98926C13.5396 8.99236 13.3502 9.07423 13.2118 9.21686C13.0734 9.3595 12.9972 9.55125 13.0001 9.75V17.25C12.9987 17.3494 13.017 17.4481 13.0541 17.5403C13.0911 17.6325 13.1462 17.7164 13.2159 17.7872C13.2857 17.858 13.3689 17.9142 13.4606 17.9526C13.5523 17.9909 13.6507 18.0107 13.7501 18.0107C13.8495 18.0107 13.9479 17.9909 14.0396 17.9526C14.1312 17.9142 14.2144 17.858 14.2842 17.7872C14.354 17.7164 14.409 17.6325 14.446 17.5403C14.4831 17.4481 14.5015 17.3494 14.5001 17.25V9.75C14.5015 9.64962 14.4828 9.54997 14.445 9.45695C14.4072 9.36394 14.3511 9.27946 14.2801 9.20852C14.2091 9.13758 14.1245 9.08161 14.0315 9.04395C13.9384 9.00629 13.8387 8.98769 13.7383 8.98926Z" fill="#7B7B7B"/>
</svg>
