<svg xmlns="http://www.w3.org/2000/svg" viewBox="0 0 130.36 103.92"><defs><style>.cls-1,.cls-2{fill:none;stroke-linecap:round;stroke-linejoin:round;}.cls-1{stroke:#000;stroke-width:2.58px;}.cls-2{stroke:#a07282;stroke-width:2.88px;}</style></defs><g id="Layer_2" data-name="Layer 2"><g id="Layer_1-2" data-name="Layer 1"><polygon class="cls-1" points="83.37 43.36 63.79 43.36 47.46 43.36 27.91 65.72 65.85 102.63 102.97 65.75 83.37 43.36"/><line class="cls-1" x1="62.36" y1="1.29" x2="49.35" y2="1.29"/><line class="cls-1" x1="82.87" y1="1.29" x2="70.65" y2="1.29"/><polyline class="cls-1" points="101.87 7.77 96.38 1.29 89.79 1.29"/><line class="cls-1" x1="117.17" y1="26.25" x2="109.33" y2="16.64"/><polyline class="cls-1" points="122.64 46.2 129.07 39.82 124.15 34.03"/><line class="cls-1" x1="109.52" y1="59.24" x2="116.51" y2="52.3"/><polyline class="cls-1" points="28.82 66.6 65.85 102.63 102.97 65.75"/><line class="cls-1" x1="13.29" y1="51.49" x2="20.81" y2="58.81"/><polyline class="cls-1" points="6.73 33.41 1.29 39.82 7.76 46.11"/><line class="cls-1" x1="22.66" y1="14.63" x2="12.06" y2="27.13"/><polyline class="cls-1" points="41.64 1.29 33.98 1.29 28.17 8.13"/><line class="cls-1" x1="28.65" y1="65.53" x2="102.18" y2="65.53"/><polygon class="cls-1" points="83.37 65.53 65 43.36 47.46 65.53 65.85 102.63 83.37 65.53"/><line class="cls-2" x1="84.97" y1="35.54" x2="93.58" y2="8.56"/><polyline class="cls-2" points="86.47 12.75 93.58 8.56 96.72 15.3"/><line class="cls-2" x1="46.7" y1="37.09" x2="39.53" y2="9.69"/><polyline class="cls-2" points="35.76 17.04 39.53 9.69 45.79 13.7"/></g></g></svg>